PathFileType	4	(X/Y/Z)	C:/Users/beibeiliu/ov580/test_trc/capture2\sequence.10_training_dense_right.trc
DataRate	CameraRate	NumFrames	NumMarkers	Units	OrigDataRate	OrigDataStartFrame	OrigNumFrames
120	120	20	19	mm	120	88	349
Frame#	Time	ThumbCMC			ThumbMCP			ThumbIP			ThumbTip			IndexMCP			IndexPIP			IndexTip			MiddleMCP			MiddlePIP			MiddleTip			RingMCP			RingPIP			RingTip			PinkyMCP			PinkyPIP			PinkyTip			BackHand1			BackHand2			BackHand3	
		X0	Y0	Z0	X1	Y1	Z1	X2	Y2	Z2	X3	Y3	Z3	X4	Y4	Z4	X5	Y5	Z5	X6	Y6	Z6	X7	Y7	Z7	X8	Y8	Z8	X9	Y9	Z9	X10	Y10	Z10	X11	Y11	Z11	X12	Y12	Z12	X13	Y13	Z13	X14	Y14	Z14	X15	Y15	Z15	X16	Y16	Z16	X17	Y17	Z17	X18	Y18	Z18	
87	0.725	155.042	40.6168	-32.9941	124.723	51.4971	-55.7043	104.772	48.4881	-77.9374	93.4379	26.2489	-90.9545	166.577	24.6681	-105.095	166.199	30.9091	-124.86	172.539	32.4646	-147.79	144.036	4.00206	-110.876	132.003	8.22653	-131.277	115.47	7.90467	-154.38	115.915	5.23451	-95.416	97.5387	25.0028	-80.6183	115.26	28.8458	-53.6011	105.137	-4.27841	-76.083	98.7822	18.9623	-60.7369	119.484	22.8498	-35.2447	152.449	-20.9223	-53.7564	158.103	-19.6196	-25.0747	173.051	4.77784	-41.3958	
88	0.733333	155.101	40.8478	-31.5082	123.935	54.5194	-53.4057	106.723	47.3047	-74.3682	95.3046	25.3369	-87.1423	165.928	24.2515	-103.529	166.872	29.5317	-128.915	171.938	32.4945	-152.024	142.221	1.00608	-109.569	130.891	4.93617	-129.464	116.455	8.8983	-155.92	117.071	8.04058	-95.3874	99.4209	27.1378	-80.3042	116.544	26.0546	-49.8479	108.48	-3.61117	-76.8942	98.3424	19.5642	-57.9412	122.186	23.5942	-34.4099	152.213	-16.7826	-57.2865	160.141	-18.1823	-26.9177	174.674	5.96036	-43.5819	
89	0.741667	154.779	40.734	-36.5432	124.782	53.1642	-52.3336	105.645	48.9677	-76.2478	95.3708	28.8367	-85.5929	166.675	26.5817	-103.061	168.12	33.9454	-124.482	170.444	29.201	-152.295	143.027	2.79074	-107.321	131.032	7.38639	-132.457	115.338	11.0741	-157.216	116.875	8.1042	-95.3611	98.0233	24.7747	-81.4507	115.982	30.1296	-53.2014	105.334	-3.096	-75.5851	98.7556	19.7399	-60.6102	117.704	25.2495	-34.8708	151.53	-19.5844	-53.6501	157.664	-20.6007	-25.7948	175.912	6.98852	-46.2046	
90	0.75	155.486	43.2587	-33.4285	124.525	55.029	-54.6427	105.523	49.1043	-78.068	93.0118	29.1314	-89.2229	169.231	30.1569	-103.818	166.005	32.4121	-125.275	170.536	33.4907	-148.641	144.188	3.81992	-106.073	131.607	9.08669	-131.029	117.421	9.9563	-153.732	116.948	5.23695	-93.6321	99.5007	28.5107	-78.6982	117.438	28.0091	-50.7604	107.934	-2.23631	-75.3865	97.6912	19.542	-56.6127	118.176	24.5646	-36.1474	152.874	-16.0286	-57.3246	161.393	-16.3255	-22.0067	177.042	8.5886	-45.4764	
91	0.758333	155.188	39.473	-34.189	125.05	54.3972	-55.3713	107.194	49.3762	-71.9338	93.6561	31.8321	-88.9946	166.768	26.7088	-103.87	168.309	34.5776	-128.225	170.888	33.0546	-150.121	143.668	4.39358	-107.785	130.026	7.89234	-134.106	116.138	9.79144	-155.917	116.912	7.54101	-94.888	97.1781	27.6698	-77.687	115.628	29.9379	-52.7212	105.085	-3.93551	-74.9095	99.4358	21.0684	-56.5126	118.553	24.6079	-35.6711	152.311	-18.1647	-57.5167	159.628	-19.6541	-23.465	175.687	7.73166	-42.1709	
92	0.766667	155.147	41.7514	-35.9642	126.008	51.0372	-52.599	107	51.5878	-73.7408	96.4252	30.31	-86.6359	168.09	30.0599	-103.069	169.752	35.4575	-127.864	171.086	32.6242	-150.07	145.006	5.07058	-108.052	132.14	10.247	-132.921	115.778	8.02519	-153.015	118.073	8.82166	-94.2982	97.2629	26.4231	-82.5477	116.557	27.4705	-49.1017	104.237	0.157543	-76.3895	98.1283	20.4134	-60.5611	120.34	25.6545	-35.0872	152.419	-18.3548	-55.8586	159.223	-20.5042	-22.1692	173.895	8.28586	-42.2087	
93	0.775	155.531	40.7559	-34.911	125.336	54.0658	-51.9055	107.386	48.8246	-77.3409	93.9954	33.2896	-91.2453	167.567	28.5188	-102.231	169.453	35.8223	-124.349	169.942	31.4054	-150.641	146.887	6.21121	-106.295	129.402	6.32922	-133.022	115.295	10.6531	-155.794	116.581	7.64695	-93.8843	98.1767	25.6674	-82.0551	113.071	31.7262	-53.564	106.416	-1.40479	-75.4531	96.8939	19.6988	-58.0749	119.609	24.1595	-34.5444	150.957	-20.2178	-56.6384	160.996	-16.4553	-20.9185	175.716	6.8586	-45.6224	
94	0.783333	154.747	39.825	-31.2058	125.798	53.9368	-49.8908	106.654	50.3172	-76.7368	94.5634	28.8714	-90.3775	165.39	26.1182	-104.051	167.541	32.6276	-127.825	171.882	34.3197	-148.186	144.933	4.56777	-107.742	129.587	7.1673	-132.482	114.389	9.41814	-156.211	115.268	5.59737	-94.2225	96.5246	24.1564	-80.2106	110.983	28.6268	-49.8777	110.116	-3.01343	-75.3652	98.9401	20.0632	-59.9964	121.499	24.2039	-33.8976	150.314	-19.3956	-55.2483	158.211	-19.1204	-25.9804	177.39	7.72068	-41.4987	
95	0.791667	155.515	43.6382	-33.7866	126.336	56.7475	-51.7751	106.286	50.1356	-78.1604	97.2604	30.2274	-87.7696	167.324	29.0847	-101.175	167.155	33.5501	-126.742	171.074	34.9009	-147.95	143.603	2.97812	-105.084	131.476	7.7607	-130.927	115.517	8.15877	-153.772	118.5	6.48248	-93.173	97.9353	26.1219	-81.2465	112.052	30.0359	-50.2777	108.965	-1.23472	-76.4751	98.7885	20.2856	-57.2012	119.074	21.9905	-35.2882	154.179	-17.5967	-55.3363	160.509	-18.596	-25.1513	174.181	6.24226	-45.3197	
96	0.8	156.125	44.4548	-34.5709	126.156	51.1771	-53.478	108.247	49.782	-73.7351	95.5077	30.741	-88.4921	167.446	30.0931	-101.988	167.623	36.3599	-123.085	168.43	31.1092	-147.029	143.518	6.36595	-110.367	129.179	5.2898	-130.846	117.636	9.30176	-152.73	116.052	4.33856	-91.2326	97.09	27.6998	-76.8249	115.687	32.6862	-50.4344	105.266	-5.17082	-74.97	100.946	21.3031	-58.2433	117.759	22.7447	-33.903	153.894	-16.2269	-53.4168	161.951	-16.2118	-25.8505	176.068	7.69641	-41.3488	
97	0.808333	154.948	43.4241	-33.9173	126.787	50.1455	-51.5814	107.186	52.7583	-73.4065	95.0035	29.9731	-87.2718	164.841	25.2129	-101.932	164.347	32.5424	-124.837	166.855	30.6203	-148.36	143.261	4.72924	-109.94	130.874	7.11095	-130.004	114.925	8.08271	-154.95	112.582	6.35619	-92.222	94.5812	24.3364	-78.1951	111.163	28.7249	-48.2693	106.803	-2.90182	-74.0683	97.6618	19.1667	-53.1985	121.274	19.3937	-31.1775	150.02	-19.3504	-54.8004	160.783	-19.4512	-25.7484	174.935	6.92208	-43.4901	
98	0.816667	155.851	43.5257	-30.3561	126.302	54.1065	-48.7114	108.639	49.4553	-71.346	93.8075	30.9985	-88.6103	164.025	24.9712	-101.767	163.201	30.4226	-125.055	169.174	33.3514	-149.242	141.962	2.67013	-108.163	128.742	5.90313	-132.079	117.12	9.71033	-152.541	114.75	4.12014	-90.2801	95.6032	25.1682	-79.3195	110.45	30.2164	-50.2142	103.598	-6.13807	-72.6642	100.299	22.2579	-56.1218	121.135	20.6944	-34.3928	151.961	-16.7521	-52.6396	159.653	-19.761	-21.7191	174.586	8.61032	-45.0775	
99	0.825	156.52	43.9343	-32.8389	126.781	53.0238	-50.0198	107.816	49.2712	-74.7269	94.0181	31.1016	-89.9396	165.406	29.3802	-101.257	165.149	34.8733	-122.996	168.186	33.6393	-150.407	144.233	6.37758	-109.189	130.116	7.44095	-129.184	116.958	11.1613	-154.297	114.473	6.74887	-91.9049	94.9503	25.7293	-77.2153	110.99	28.0979	-48.8868	102.734	-2.90616	-74.274	96.5334	19.3461	-53.8254	120.922	23.8078	-33.4433	149.958	-17.0547	-55.5322	159.115	-20.9092	-23.2686	173.64	8.97305	-43.4161	
100	0.833333	155.466	41.8108	-32.3791	126.454	55.4468	-51.3343	107.27	51.7805	-72.0638	96.5792	28.6377	-86.6079	163.49	26.2729	-102.74	165.711	33.9663	-126.497	166.919	31.9791	-147.203	141.837	4.60429	-107.436	128.049	5.83614	-130.987	115.663	9.34331	-153.482	115.067	4.40091	-91.7098	95.9289	27.396	-79.2205	115.161	28.7336	-48.7182	106.038	-4.02577	-73.8626	97.7682	20.1819	-58.7932	119.05	22.3996	-32.8851	151.765	-15.2738	-54.3594	158.065	-20.8033	-24.4444	174.359	6.71357	-44.1866	
101	0.841667	155.674	44.2438	-35.7307	126.566	51.7743	-52.7385	106.798	50.7158	-76.5819	94.8656	34.865	-88.2149	166.744	30.5271	-103.877	166.482	35.7659	-124.505	168.744	33.2421	-150.356	142.258	5.0324	-109.611	130.64	8.49641	-129.468	115.049	10.7175	-157.106	116.951	8.22994	-93.282	97.2278	27.6353	-79.5142	114.759	30.9892	-50.4973	109.007	-3.11102	-73.7709	99.3388	20.8355	-57.1733	119.935	24.8947	-33.2221	151.465	-16.7654	-51.7056	159.613	-16.8693	-22.9302	173.319	6.08868	-44.277	
102	0.85	155.194	41.3126	-33.8592	126.74	54.6542	-51.7875	106.613	51.4612	-76.2889	95.8453	34.3564	-85.9924	165.488	28.1259	-101.643	165.422	33.4006	-124.147	168.54	32.9934	-148.938	143.314	4.88335	-107.214	128.995	7.02463	-131.431	112.351	8.38165	-157.42	116.956	5.0718	-91.4199	97.4807	27.1539	-81.2512	113.298	31.4214	-51.0574	106.778	-0.714971	-75.1353	98.2768	20.1328	-57.7128	118.174	23.7202	-33.623	152.535	-15.8305	-57.038	160.542	-19.0491	-22.1284	173.513	5.99447	-43.3106	
103	0.858333	156.48	44.5248	-32.5608	127.126	53.5951	-51.6451	109.104	49.7237	-73.9438	95.6479	30.494	-90.7604	164.729	26.605	-105.202	167.014	35.7085	-127.749	170.843	36.3949	-150.79	141.804	3.58329	-106.815	130.194	9.5103	-132.116	116.364	12.044	-155.507	116.658	7.3596	-93.9424	97.335	25.6448	-81.951	112.562	29.7884	-51.7194	104.937	-1.66882	-75.5549	97.8623	20.5187	-60.3905	118.091	25.9018	-34.9747	151.874	-18.0072	-55.6396	161.752	-17.716	-23.55	176.752	9.71361	-43.3911	
104	0.866667	155.021	40.3549	-32.1236	126.13	56.298	-54.1635	108.5	48.5857	-75.2908	96.8588	30.9278	-87.0581	168.12	29.9101	-102.071	169.074	36.65	-127.543	168.984	33.5387	-150.797	145.815	6.6243	-110.818	130.709	6.46665	-131.537	115.384	8.4822	-155.201	116.326	5.83936	-94.3224	99.1982	29.3246	-82.2892	113.789	27.5048	-51.1463	107.421	-3.71302	-76.7888	97.3762	20.2136	-59.9213	122.689	25.9984	-36.0621	153.707	-17.7718	-53.0295	159.677	-18.3143	-22.0792	172.788	6.69878	-41.8832	
105	0.875	155.777	41.8404	-34.3065	125.228	55.9191	-53.6885	105.632	50.6211	-77.1739	95.5683	27.8076	-88.3446	168.247	29.5406	-104.491	168.356	36.3258	-126.224	169.776	35.3117	-148.774	145.075	5.23814	-109.523	132.652	6.24737	-129.794	116.457	9.60222	-156.086	116.887	9.55967	-96.0016	100.689	30.4749	-82.2756	113.945	31.6761	-53.9298	107.539	-2.2333	-77.4598	100.308	23.3104	-60.3971	120.412	25.4513	-37.8257	152.221	-16.4459	-55.9205	161.286	-16.4865	-24.249	174.093	9.92044	-45.1205	
106	0.883333	156.722	46.8203	-34.0078	125.704	58.1759	-53.4109	106.22	50.9401	-77.1645	95.8107	31.2537	-86.1558	166.385	28.3791	-105.275	166.766	34.1913	-125.542	170.265	35.0483	-151.584	143.766	4.21238	-110.159	132.199	5.76111	-133.519	117.079	8.35949	-160.114	118.167	9.48511	-96.3927	100.074	29.0053	-84.4415	114.548	33.258	-55.8347	107.62	-3.93427	-77.0942	97.8261	21.6731	-59.0062	116.508	23.5291	-36.5926	151.665	-19.4131	-56.3147	159.275	-19.1188	-23.3623	174.701	9.23303	-46.4771	
